<svg xmlns="http://www.w3.org/2000/svg" x="0px" y="0px" width="100" height="100"
  viewBox="0,0,256,256">
  <g fill="#ffffff" fill-rule="nonzero" stroke="none" stroke-width="1" stroke-linecap="butt"
    stroke-linejoin="miter" stroke-miterlimit="10" stroke-dasharray="" stroke-dashoffset="0"
    font-family="none" font-weight="none" font-size="none" text-anchor="none"
    style="mix-blend-mode: normal">
    <g transform="scale(8.53333,8.53333)">
      <path
        d="M27.973,7.152c-0.324,-1.209 -1.28,-2.16 -2.486,-2.484c-2.194,-0.588 -10.987,-0.588 -10.987,-0.588c0,0 -8.793,0 -10.987,0.588c-1.207,0.324 -2.162,1.275 -2.486,2.484c-0.588,2.191 -0.588,6.762 -0.588,6.762c0,0 0,4.571 0.588,6.762c0.324,1.209 1.279,2.16 2.486,2.484c2.194,0.588 10.987,0.588 10.987,0.588c0,0 8.793,0 10.987,-0.588c1.207,-0.324 2.162,-1.275 2.486,-2.484c0.588,-2.191 0.588,-6.762 0.588,-6.762c0,0 0,-4.571 -0.588,-6.762zM11.5,18.576v-8.238l7.5,4.119z"></path>
    </g>
  </g>
</svg>
